<svg xmlns="http://www.w3.org/2000/svg" viewBox="0 0 64 64" fill="none">
  <!-- Steam -->
  <path d="M22 10 Q24 6 22 2" stroke="#818cf8" stroke-width="2.5" stroke-linecap="round"/>
  <path d="M30 10 Q32 6 30 2" stroke="#818cf8" stroke-width="2.5" stroke-linecap="round"/>
  <path d="M38 10 Q40 6 38 2" stroke="#818cf8" stroke-width="2.5" stroke-linecap="round"/>
  <!-- Cup body -->
  <path d="M12 16 L16 52 Q16 56 20 56 L44 56 Q48 56 48 52 L52 16 Z" fill="#6366f1"/>
  <!-- Cup highlight -->
  <path d="M16 16 L19 46 Q19 50 22 50 L42 50 Q45 50 45 47 L48 16 Z" fill="#818cf8" opacity="0.3"/>
  <!-- Handle -->
  <path d="M52 24 Q62 24 62 32 Q62 40 52 40" stroke="#6366f1" stroke-width="4" stroke-linecap="round" fill="none"/>
  <!-- Saucer -->
  <ellipse cx="32" cy="58" rx="22" ry="4" fill="#6366f1" opacity="0.5"/>
</svg>
